emandoz presents:

The Jungle Book [4:3] [MultiLanguage] [emandoz 1-gig rip]


The Jungle Book
Audio: English, German, Spanish, Swedish, Norwegian, Danish, Finnish, Portugese
Subs included
Source: PAL DVD

--------------------------------------------------------------------
The Jungle Book (1967)

Video
ID                               : 1
Format                           : AVC
Format/Info                      : Advanced Video Codec
Format profile                   : High@L3.0
Format settings, CABAC           : Yes
Format settings, ReFrames        : 3 frames
Muxing mode                      : Container profile=Unknown@3.0
Codec ID                         : V_MPEG4/ISO/AVC
Duration                         : 1h 15mn
Bit rate                         : 818 Kbps
Nominal bit rate                 : 840 Kbps
Width                            : 720 pixels
Height                           : 576 pixels
Display aspect ratio             : 4/3
Original display aspect ratio    : 5/4
Frame rate                       : 25.000 fps
Standard                         : PAL
Resolution                       : 24 bits
Colorimetry                      : 4:2:0
Scan type                        : Progressive
Bits/(Pixel*Frame)               : 0.079
Stream size                      : 441 MiB (49%)
Writing library                  : x264 core 65
Encoding settings                : cabac=1 / ref=3 / deblock=1:0:0 / analyse=0x3:0x133 / me=umh / subme=9 / psy_rd=1.0:1.0 / mixed_ref=1 / me_range=16 / chroma_me=1 / trellis=1 / 8x8dct=1 / cqm=0 / deadzone=21,11 / chroma_qp_offset=-4 / threads=1 / nr=0 / decimate=1 / mbaff=0 / bframes=6 / b_pyramid=1 / b_adapt=1 / b_bias=0 / direct=3 / wpredb=1 / keyint=250 / keyint_min=25 / scenecut=40 / rc=2pass / bitrate=840 / ratetol=1.0 / qcomp=0.60 / qpmin=10 / qpmax=51 / qpstep=4 / cplxblur=20.0 / qblur=0.5 / ip_ratio=1.40 / pb_ratio=1.30 / aq=1:1.00
Language                         : English

Audio #1
ID                               : 2
Format                           : Vorbis
Format settings, Floor           : 1
Codec ID                         : A_VORBIS
Duration                         : 1h 15mn
Bit rate mode                    : Constant
Bit rate                         : 112 Kbps
Channel(s)                       : 2 channels
Sampling rate                    : 48.0 KHz
Stream size                      : 60.4 MiB (7%)
Writing library                  : aoTuV Beta 5 (UTC 2006-10-24)
Language                         : English

Audio #2
ID                               : 3
Format                           : Vorbis
Format settings, Floor           : 1
Codec ID                         : A_VORBIS
Duration                         : 1h 15mn
Bit rate mode                    : Constant
Bit rate                         : 112 Kbps
Channel(s)                       : 2 channels
Sampling rate                    : 48.0 KHz
Stream size                      : 60.4 MiB (7%)
Writing library                  : aoTuV Beta 5 (UTC 2006-10-24)
Language                         : German

Audio #3
ID                               : 4
Format                           : Vorbis
Format settings, Floor           : 1
Codec ID                         : A_VORBIS
Duration                         : 1h 15mn
Bit rate mode                    : Constant
Bit rate                         : 112 Kbps
Channel(s)                       : 2 channels
Sampling rate                    : 48.0 KHz
Stream size                      : 60.4 MiB (7%)
Writing library                  : aoTuV Beta 5 (UTC 2006-10-24)
Language                         : Spanish

Audio #4
ID                               : 5
Format                           : Vorbis
Format settings, Floor           : 1
Codec ID                         : A_VORBIS
Duration                         : 1h 15mn
Bit rate mode                    : Constant
Bit rate                         : 112 Kbps
Channel(s)                       : 2 channels
Sampling rate                    : 48.0 KHz
Stream size                      : 60.4 MiB (7%)
Writing library                  : aoTuV Beta 5 (UTC 2006-10-24)
Language                         : Swedish

Audio #5
ID                               : 6
Format                           : Vorbis
Format settings, Floor           : 1
Codec ID                         : A_VORBIS
Duration                         : 1h 15mn
Bit rate                         : 96.0 Kbps
Minimum bit rate                 : 96.0 Kbps
Maximum bit rate                 : 96.0 Kbps
Channel(s)                       : 2 channels
Sampling rate                    : 48.0 KHz
Stream size                      : 51.8 MiB (6%)
Writing library                  : aoTuV b5d  (UTC 2009-03-01)
Language                         : Norwegian

Audio #6
ID                               : 7
Format                           : Vorbis
Format settings, Floor           : 1
Codec ID                         : A_VORBIS
Duration                         : 1h 15mn
Bit rate                         : 96.0 Kbps
Minimum bit rate                 : 96.0 Kbps
Maximum bit rate                 : 96.0 Kbps
Channel(s)                       : 2 channels
Sampling rate                    : 48.0 KHz
Stream size                      : 51.8 MiB (6%)
Writing library                  : aoTuV b5d  (UTC 2009-03-01)
Language                         : Danish

Audio #7
ID                               : 8
Format                           : Vorbis
Format settings, Floor           : 1
Codec ID                         : A_VORBIS
Duration                         : 1h 15mn
Bit rate                         : 96.0 Kbps
Minimum bit rate                 : 96.0 Kbps
Maximum bit rate                 : 96.0 Kbps
Channel(s)                       : 2 channels
Sampling rate                    : 48.0 KHz
Stream size                      : 51.8 MiB (6%)
Writing library                  : aoTuV b5d  (UTC 2009-03-01)
Language                         : Finnish

Audio #8
ID                               : 9
Format                           : Vorbis
Format settings, Floor           : 1
Codec ID                         : A_VORBIS
Duration                         : 1h 15mn
Bit rate                         : 96.0 Kbps
Minimum bit rate                 : 96.0 Kbps
Maximum bit rate                 : 96.0 Kbps
Channel(s)                       : 2 channels
Sampling rate                    : 48.0 KHz
Stream size                      : 51.8 MiB (6%)
Writing library                  : aoTuV b5d  (UTC 2009-03-01)
Language                         : Portugese

Subs
English, Spanish, English for the hearing impaired
--------------------------------------------------------------------

